<?xml version="1.0" encoding="utf-8"?>
<!-- Generator: Adobe Illustrator 23.0.3, SVG Export Plug-In . SVG Version: 6.00 Build 0)  -->
<svg version="1.1" id="Layer_1" xmlns="http://www.w3.org/2000/svg" xmlns:xlink="http://www.w3.org/1999/xlink" x="0px" y="0px"
	 viewBox="0 0 2560 1440" style="enable-background:new 0 0 2560 1440;" xml:space="preserve">
<g>
	<path d="M751.83,991.9c-17.1-34.19-25.64-74.55-25.64-121.1c0,46.88-8.47,87.33-25.39,121.35c-16.94,34.01-36.47,51.01-58.6,51.01
		v7.82h167.97v-7.82C788.36,1043.16,768.92,1026.09,751.83,991.9z"/>
	<path d="M1064.58,874.71l-58.6,176.27h-39.56L721.8,420.6c-6.85-18.22-17.18-33.03-31-44.42c-13.85-11.39-30.03-17.09-48.6-17.09
		v-8.32h219.25L1064.58,874.71z"/>
</g>
<g>
	<path d="M1784.55,861.04c0,59.56-24.02,106.11-72.02,139.64c-48.01,33.53-113.69,50.3-197.01,50.3h-13.19
		c31.25-9.11,55.81-23.52,73.72-43.21c17.9-19.68,30.51-42.48,37.84-68.36c7.33-25.87,11-52,11-78.37
		c0-54.36-13.03-98.95-39.06-133.8c-31.25-41.65-80.74-62.5-148.44-62.5c36.13,0,65.33-6.9,87.64-20.75
		c22.3-13.83,38.58-32.47,48.83-55.9c10.25-23.44,15.37-49.16,15.37-77.16c0-34.5-7.9-66.72-23.68-96.67
		c-15.78-29.94-40.93-51.11-75.43-63.49h25.4c48.17,0,89.67,5.96,124.5,17.83c34.82,11.89,61.68,29.64,80.56,53.24
		c18.87,23.59,28.33,53.29,28.33,89.09c0,45.25-14.82,80.58-44.44,105.97c-29.63,25.39-71.28,41.5-125,48.33
		c65.09,9.45,115.55,31.51,151.36,66.17C1766.64,766.07,1784.55,809.29,1784.55,861.04z"/>
</g>
<g>
	<path d="M1452.03,1050.98H1132.2v-7.81c22.13,0,41.02-8.86,56.64-26.61c15.63-17.73,23.44-39.63,23.44-65.67v-500
		c0-26.03-7.81-47.84-23.44-65.42s-34.52-26.38-56.64-26.38v-8.31h319.83v8.31c-21.81,0-40.53,8.8-56.16,26.38
		s-23.44,39.39-23.44,65.42v500c0,26.05,7.81,47.94,23.44,65.67c15.63,17.75,34.34,26.61,56.16,26.61V1050.98z"/>
</g>
</svg>
