<?xml version="1.0" encoding="utf-8"?>
<!-- Generator: Adobe Illustrator 23.0.3, SVG Export Plug-In . SVG Version: 6.00 Build 0)  -->
<svg version="1.1" id="Layer_1" xmlns="http://www.w3.org/2000/svg" xmlns:xlink="http://www.w3.org/1999/xlink" x="0px" y="0px"
	 viewBox="0 0 835.94 239.33" style="enable-background:new 0 0 835.94 239.33;" xml:space="preserve">
<g>
	<path d="M413.65,98.42c0-2.87,0.05-5.87-0.03-8.86c-0.02-0.79-0.43-1.57-0.67-2.35c-0.9,0.28-2.14,0.29-2.65,0.9
		c-1.63,1.96-3.03,4.11-4.44,6.24c-3.51,5.3-7.04,10.59-10.44,15.96c-2.97,4.68-5.72,9.51-8.68,14.19c-2.44,3.85-5,7.62-7.6,11.37
		c-2.73,3.94-5.51,7.86-8.39,11.69c-1.03,1.36-2.31,2.61-3.69,3.62c-2.4,1.76-5.28,1.29-7.38-0.83c-2.89-2.92-4.07-6.46-3.98-10.5
		c0.09-3.75,0.23-7.49,0.29-11.24c0.05-3.09-1.37-4.11-4.19-3.11c-4.21,1.49-8.43,2.95-12.64,4.44c-3.23,1.15-5.11,3.41-5.47,6.85
		c-1.6,15.41-8.87,27.69-20.46,37.74c-6.63,5.74-14.6,8.21-22.86,9.65c-6.44,1.12-13.09,1.45-19.65,1.45
		c-5.15,0-8.91-4.35-8.25-8.55c0.17-1.07,0.74-2.09,1.17-3.11c0.98-2.28,0.46-4.2-0.23-6.64c-1.07-3.74-0.82-8.01-0.39-11.98
		c1.03-9.32,4.94-18.41,1.79-28.03c-0.52-1.6-0.04-3.49-0.31-5.21c-0.31-1.98-1.26-2.72-2.83-0.81c-2.11,2.57-3.91,5.52-6.41,7.65
		c-7.32,6.25-14.82,12.31-22.44,18.2c-9.87,7.63-19.87,15.1-29.94,22.46c-2.3,1.68-4.93,3.47-8.16,1.98
		c-3.87-1.78-5.44-6.52-3.15-10.73c1.41-2.59,1.02-4.72,0.32-7.4c-0.54-2.1,0.34-4.7,1.04-6.94c1.4-4.49,3.41-8.81,4.63-13.34
		c2.87-10.66,5.54-21.39,8.08-32.14c1.51-6.39,2.49-12.91,3.98-19.31c1.07-4.58,2.42-9.12,3.95-13.57
		c2.98-8.67,6.16-17.26,9.27-25.88c1.26-3.49,2.49-6.99,3.8-10.45c0.76-2.01,1.77-4.47,4.35-3.61c2.77,0.93,2.28,3.65,1.42,5.79
		c-2.11,5.29-4.41,10.5-6.65,15.74c-5.36,12.52-10.54,25.06-13.22,38.55c-2.15,10.81-5.06,21.47-7.85,32.14
		c-1.96,7.52-4.29,14.94-6.42,22.42c-0.15,0.53,0.03,1.16,0.06,1.75c0.67-0.11,1.57,0.01,1.97-0.39c1.59-1.57,3.14-3.2,4.48-4.98
		c6.97-9.29,13.9-18.61,20.78-27.97c1.6-2.18,2.7-4.76,4.47-6.77c1.83-2.08,4.08-3.87,6.39-5.41c0.85-0.56,2.67-0.44,3.59,0.13
		c0.68,0.42,1.21,2.36,0.81,3.07c-2,3.65-4,7.38-6.6,10.6c-4.18,5.19-9.03,9.85-13.23,15.03c-5.43,6.69-10.53,13.64-15.73,20.51
		c-2.23,2.94-4.44,5.9-6.48,8.97c-1.02,1.53-1.81,3.26-2.38,5.01c-0.3,0.92-0.3,2.53,0.26,3.01c0.79,0.67,2.53,1.13,3.33,0.69
		c3.12-1.7,6.13-3.64,8.99-5.75c8.34-6.17,16.57-12.49,24.88-18.69c9.92-7.4,19.95-14.71,27.31-24.87c2.81-3.88,1.05-8.38,0.44-12.6
		c-1.06-7.37-2.75-14.7-3.2-22.11c-0.63-10.27,3.71-19.33,10.09-26.9c6.02-7.14,13.17-13.35,20.06-19.72
		c9.76-9.02,21.82-14.06,34.01-18.67c7.39-2.79,15.17-3.5,22.81-1.19c3.21,0.97,6.26,2.94,8.98,4.99c3.32,2.52,4.24,8.13,2.51,12.23
		c-4.74,11.26-11.19,21.45-19.19,30.69c-8.81,10.17-17.48,20.46-26.3,30.62c-2.11,2.43-4.6,4.53-6.92,6.78
		c-0.43,0.42-1.03,0.75-1.29,1.26c-0.48,0.96-0.77,2.01-1.14,3.03c1.01-0.15,2.1-0.11,3.03-0.48c5.98-2.4,12.11-3.52,18.11-0.56
		c5.43,2.67,8.95,7.21,10.28,13.23c0.49,2.19,0.89,4.41,1.31,6.61c0.48,2.51,2.1,2.93,4.16,2.1c5.41-2.17,11.04-3.96,16.03-6.86
		c2.15-1.25,3.28-4.74,4.26-7.44c2.83-7.79,5.32-15.7,7.98-23.55c1.27-3.73,2.49-7.48,3.97-11.13c2.84-7,5.89-13.91,8.78-20.88
		c3.35-8.09,6.57-16.23,9.99-24.3c0.91-2.16,2.18-4.22,3.61-6.08c0.58-0.75,2.12-1.28,3.04-1.08c0.73,0.16,1.65,1.59,1.65,2.45
		c0,1.71-0.36,3.5-0.97,5.1c-2.25,5.88-4.91,11.61-6.91,17.57c-1.21,3.59-1.87,7.47-2.11,11.26c-0.41,6.48,0.2,13.04-0.51,19.47
		c-0.92,8.33-0.91,16.98-4.97,24.64c-3.59,6.78-9.22,11.39-16.29,14.47c-2.07,0.9-4.53,2.81-5.16,4.79
		c-2.07,6.51-2.18,13.27,0.09,19.84c0.95,2.76,2.66,3.2,4.71,1.08c2.47-2.54,4.68-5.38,6.7-8.3c7.19-10.35,14.37-20.7,21.32-31.2
		c6.85-10.37,13.53-20.87,20.04-31.46c2.39-3.88,4.13-8.16,6.1-12.3c0.99-2.08,2.54-3.48,4.68-2.25c1.73,1,2.55,2.69,1.18,5.07
		c-2.26,3.94-4.47,8.01-5.87,12.3c-1.45,4.44-2.35,9.17-2.7,13.83c-0.86,11.6,0.99,22.48,9.5,31.41c4.42,4.64,9.32,8.09,15.68,9.32
		c1.69,0.33,3.31,1.03,4.99,1.43c9.1,2.16,17.08-0.8,24.79-5.32c6.8-3.98,10.84-9.55,11.21-17.59c0.07-1.59,0.87-3.15,0.93-4.74
		c0.04-0.99-0.41-2.42-1.14-2.9c-0.67-0.44-2.22-0.2-3.01,0.31c-5.39,3.48-10.6,7.24-16.03,10.66c-3.35,2.11-6.82,4.7-10.54,5.35
		c-3.04,0.53-6.93-0.83-9.73-2.53c-5.22-3.16-5.91-8.32-5.47-14.39c0.89-12.25,9.97-18.81,17.34-26.36
		c7.4-7.58,20.06-4.09,25.52,4.17c1.41,2.14,2.49,4.55,3.42,6.96c1.51,3.92,3.11,4.6,6.62,2.18c10.83-7.48,20.14-16.68,29.01-26.31
		c7.36-7.98,14.61-16.1,21.48-24.51c4.43-5.42,8.01-11.53,12.12-17.22c1.36-1.88,3.18-3.43,4.84-5.08c1.48-1.47,3.27-2.96,5.11-0.96
		c1.64,1.79,1.5,4.03-0.16,6.02c-5.7,6.83-11.39,13.68-17.06,20.53c-2.52,3.04-5.18,5.97-7.44,9.19
		c-3.54,5.03-7.07,10.1-10.09,15.45c-3.86,6.83-7.38,13.86-10.72,20.96c-3.5,7.44-6.45,15.14-9.95,22.57
		c-2.79,5.93-4.92,11.93-4.86,18.57c0.06,6.61,5.94,15.87,11.9,17.41c2.63,0.68,6.01,0.14,8.57-0.96
		c7.49-3.22,14.79-6.91,22.08-10.58c9.15-4.61,18-9.92,27.41-13.9c6.66-2.82,13.99-4.19,21.13-5.71c4.56-0.97,9.3-1.25,13.98-1.42
		c7.65-0.28,14.84,1.75,21.32,5.73c5.01,3.08,9.53,6.95,14.54,10.02c9.24,5.67,19.02,9.77,29.95,11.59
		c7.36,1.22,14.61,1.29,21.95,1.42c10.37,0.18,20.74,0.67,31.1,0.47c9.59-0.19,19.17-1.14,28.75-1.71
		c3.61-0.21,7.25-0.09,10.84-0.49c11.97-1.33,23.86-2.95,35.51-6.28c7.15-2.05,14.4-3.63,21.13-6.93c0.7-0.34,1.79,0.11,2.7,0.2
		c-0.51,0.79-0.84,1.95-1.56,2.3c-3.77,1.86-7.55,3.8-11.5,5.2c-12.46,4.44-25.3,7.42-38.42,8.98c-7.64,0.91-15.35,1.35-23.04,1.71
		c-13.58,0.64-27.16,1.27-40.75,1.52c-9.99,0.18-20.07,0.42-29.96-0.66c-8.04-0.88-16.13-3-23.72-5.86
		c-7.33-2.76-14.16-6.98-20.99-10.93c-4.16-2.4-7.69-5.9-11.89-8.2c-7.63-4.17-16.19-4.22-24.45-3.28
		c-6.97,0.79-13.96,2.59-20.6,4.91c-6.52,2.28-12.67,5.67-18.88,8.77c-9.05,4.52-17.95,9.33-27.03,13.78
		c-4.3,2.11-8.85,3.71-13.32,5.44c-4.28,1.66-7.96-0.5-10.99-2.82c-9.2-7.03-11.45-16.98-9.3-27.7c1.29-6.46,4.17-12.62,6.58-18.82
		c2.31-5.95,4.76-11.86,7.48-17.64c1.72-3.67,4.12-7.01,6.05-10.59c0.66-1.22,0.82-2.71,1.22-4.08c-1.29,0.74-2.82,1.25-3.84,2.26
		c-4.29,4.25-8.2,8.92-12.69,12.94c-4.54,4.06-9.52,7.65-14.48,11.2c-1.81,1.3-2.19,2.68-2.13,4.73c0.14,4.49,0.38,9.02-0.07,13.47
		c-0.62,6.13-3.31,11.58-8.42,15.13c-8.14,5.64-16.85,10.16-27.25,9.46c-11.99-0.81-22.36-5.06-30.38-14.34
		C416.11,116.74,412.35,108.52,413.65,98.42z M271.38,106.13c-0.98,1.99-2.23,3.89-2.87,5.98c-0.65,2.13-0.85,4.44-0.89,6.67
		c-0.01,0.68,1.12,1.53,1.91,1.96c0.21,0.12,1.42-0.9,1.63-1.56c1.09-3.51,2.1-7.05,2.94-10.62c0.57-2.41-0.59-3.14-2.84-2.31
		c0.59-1.71,0.91-3.59,1.83-5.09c3.35-5.46,6.92-10.78,10.36-16.18c1.23-1.94,2.14-5.24,4.94-3.81c2.79,1.43,1.16,4.36,0.13,6.61
		c-2,4.34-4.43,8.53-6.01,13.02c-3.61,10.24-6.74,20.64-10.21,30.92c-3.12,9.26-3.72,18.79-3.46,28.44c0.03,0.94,0.47,1.87,0.72,2.8
		c0.98-0.39,2.04-0.66,2.91-1.22c0.7-0.45,1.13-1.3,1.75-1.89c3.84-3.64,7.39-7.66,11.6-10.79c12.03-8.95,25.61-14.87,39.95-19.11
		c2.99-0.88,5.21-2.83,4.35-5.96c-1.2-4.35-2.82-8.71-5.03-12.63c-1.66-2.94-5.22-4.75-8.49-4.49c-6.54,0.52-12.79,2.48-18.29,6.39
		c-2.31,1.64-4.76,3.17-7.35,4.26c-1.05,0.44-3.13,0-3.87-0.83c-0.64-0.72-0.6-2.97,0.07-3.79c3.33-4.08,6.86-8.03,10.53-11.81
		c4.66-4.8,9.8-9.16,14.25-14.13c6.83-7.63,12.97-15.88,19.9-23.4c8.75-9.49,15.14-20.36,20.34-32.03
		c1.84-4.13,0.41-8.22-3.64-10.13c-2.32-1.09-4.93-1.72-7.48-2.15c-11.67-1.96-21.73,3.24-31.65,7.96
		c-13.09,6.23-23.8,15.75-33.85,26.16c-6.64,6.88-10.84,15.1-12.94,23.86c-2.01,8.39-0.94,17.37,2.05,25.79
		c0.57,1.61,1.08,3.24,1.61,4.86C268,107.29,269.69,106.71,271.38,106.13z M277.74,182.16c0.07,0.28,0.13,0.56,0.2,0.84
		c5.87-1.4,11.86-2.45,17.57-4.32c3.9-1.28,7.73-3.27,11.07-5.68c11.35-8.18,18.76-19.15,21.75-32.91c0.35-1.62,0.77-4-0.06-4.87
		c-0.83-0.87-3.18-0.31-4.87-0.31c-0.48,0-0.97,0.22-1.42,0.43c-7.55,3.37-15.33,6.33-22.6,10.22
		c-12.27,6.57-22.53,15.5-29.32,27.95c-2.68,4.92-0.52,8.73,5.08,8.83C275.99,182.35,276.87,182.22,277.74,182.16z M452.33,114.5
		c0.42-0.11,1.61-0.17,2.52-0.7c5.61-3.32,11.18-6.7,16.7-10.16c3.84-2.41,7.56-5,11.34-7.5c1.57-1.04,2.13-2.22,1.12-4.07
		c-2.1-3.87-4.01-7.85-6.12-11.71c-0.36-0.66-1.33-1.33-2.06-1.38c-6.11-0.42-12.05-1.56-17.89,2.6c-4.3,3.06-7.6,6.66-10.16,10.95
		c-2.05,3.42-3.66,7.27-4.61,11.14C441.9,108.79,446.65,114.45,452.33,114.5z M384.94,69.37c-0.08-0.01-0.15-0.03-0.23-0.04
		c0-1.87,0.13-3.75-0.04-5.61c-0.12-1.32-1-1.84-1.94-0.57c-1.08,1.46-2.25,2.95-2.89,4.62c-4.52,11.92-8.95,23.87-13.33,35.84
		c-0.93,2.54-1.86,5.16-2.19,7.81c-0.3,2.39,1.69,3.39,3.85,2.2c7.32-4.03,11.46-10.59,13.06-18.43
		C382.98,86.69,383.75,77.98,384.94,69.37z"/>
	<path d="M115.68,171.78c-0.92-5.83,2.47-11.49,4.79-17.29c4.4-11,9.35-21.78,14.06-32.66c0.24-0.56,0.43-1.21,0.43-1.81
		c0-0.76-0.23-1.53-0.36-2.29c-0.76,0.25-1.76,0.27-2.25,0.78c-2.82,2.96-5.49,6.06-8.27,9.06c-7.44,8.07-14.7,16.32-22.48,24.05
		c-2.51,2.49-6.3,3.88-9.73,5.2c-3.08,1.19-8.41-2.29-9.91-5.71c-2.75-6.28-0.69-12.24,1.02-18.23c0.58-2.01,1.48-3.94,1.97-5.97
		c0.24-1-0.12-2.15-0.2-3.23c-0.82,0.65-1.93,1.14-2.4,1.98c-2.6,4.64-5.08,9.35-7.54,14.07c-4.67,8.99-9.29,18.01-13.94,27.01
		c-4.67,9.01-9.47,17.96-13.93,27.06c-0.75,1.52-0.89,4.46,0.05,5.48c2.64,2.85,1.43,5.42,0.09,7.8c-1.5,2.67-3.3,5.43-5.65,7.3
		c-3.61,2.88-5.56,6.58-7.08,10.67c-0.98,2.63-2.34,4.4-5.48,3.42c-2.21-0.69-3.53-3.38-2.71-6.16c0.52-1.75,1.5-3.39,2.4-5
		c3.75-6.74,7.57-13.45,11.34-20.19c4.86-8.7,9.83-17.34,14.48-26.15c8.78-16.61,17.31-33.35,26.05-49.99
		c4.19-7.97,8.75-15.75,12.88-23.75c2.26-4.38,3.83-9.11,5.96-13.56c3.48-7.25,7.25-14.36,10.75-21.61
		c4.24-8.8,8.97-17.46,12.19-26.63c1.54-4.36,4.46-7.56,6.25-11.56c0.81-1.81,2.71-2.66,4.75-1.45c2.2,1.3,1.48,3.36,0.69,4.93
		c-3.07,6.08-6.44,12.01-9.55,18.08c-5.69,11.11-10.93,22.46-16.99,33.36c-6.92,12.44-11.74,25.72-16.33,39.05
		c-2.68,7.77-6.08,15.5-5.99,24.05c0.04,3.91-0.44,8.13,3.96,10.02c4.35,1.87,7.81-0.65,10.61-3.6
		c7.24-7.64,14.27-15.48,21.41-23.21c5.2-5.63,10.18-11.51,15.78-16.72c5.55-5.16,9.33-11.36,12.78-17.91
		c3.21-6.1,6.42-12.2,9.75-18.24c2.49-4.52,4.91-9.12,7.87-13.32c1.49-2.11,3.96-3.76,6.32-4.95c1.28-0.65,3.74-0.45,4.79,0.43
		c0.8,0.66,0.83,3.35,0.14,4.52c-5.01,8.51-10.02,17.04-15.56,25.21c-4.08,6.01-9.35,11.21-13.39,17.24
		c-4.1,6.13-7.73,12.65-10.86,19.33c-4.43,9.48-8.25,19.25-12.26,28.93c-2.08,5.03-4.27,10.04-5.89,15.23
		c-0.91,2.91-1.18,6.19-0.91,9.22c0.15,1.64,1.76,3.58,3.26,4.51c0.87,0.54,3.12-0.25,4.23-1.1c8.38-6.47,14.92-14.69,21.01-23.22
		c5.64-7.91,8.85-17.04,12.41-26.01c1.36-3.42,4.01-6.42,6.48-9.25c0.76-0.87,3-0.99,4.32-0.6c0.66,0.19,1.31,2.44,1.02,3.5
		c-0.82,2.97-1.78,5.99-3.31,8.64c-3.69,6.41-7.96,12.49-11.56,18.94c-3.9,6.99-7.34,14.24-10.9,21.41
		c-0.54,1.1-0.84,2.38-0.94,3.61c-0.06,0.75,0.25,1.8,0.79,2.24c0.35,0.29,1.51-0.1,2.11-0.49c0.78-0.51,1.46-1.27,2.03-2.03
		c3.32-4.42,6.57-8.9,9.92-13.3c0.46-0.6,1.41-0.83,2.13-1.23c-0.16,0.77-0.11,1.66-0.5,2.28c-4,6.34-7.94,12.73-12.2,18.89
		c-1.1,1.59-2.6,3.79-5.47,2.48c-2.67-1.22-4.15-4.16-3.66-7.02c0.36-2.09,0.22-4.26,0.3-6.39c-1.55,1.31-3.18,2.55-4.64,3.96
		c-2.39,2.31-4.61,4.8-7.03,7.09c-2.21,2.1-8.44,2.88-10.86,1.16c-1.16-0.83-2.05-2.43-2.42-3.86
		C115.63,176.48,115.82,174.54,115.68,171.78z"/>
	<path d="M167.48,150.84c4.61,2.98,5.77,0.2,7.33-2.59c3.13-5.6,6.62-11.01,9.83-16.57c1.82-3.15,3.32-6.5,5.13-9.66
		c0.39-0.69,1.49-0.97,2.27-1.44c0.02,0.84,0.36,1.84,0.03,2.51c-6.01,12.24-12.06,24.46-18.25,36.61
		c-0.56,1.09-2.15,1.65-3.26,2.46c-0.73-1.18-1.51-2.33-2.17-3.54c-0.63-1.15-1.27-2.33-1.66-3.58c-0.25-0.79-0.18-1.75-0.03-2.59
		C166.81,151.81,167.28,151.22,167.48,150.84z"/>
</g>
</svg>
